<svg id="图层_1" data-name="图层 1" xmlns="http://www.w3.org/2000/svg" viewBox="0 0 1907.54 1505.23"><defs><style>.cls-1{fill:#c90;}.cls-2,.cls-4,.cls-5,.cls-6,.cls-7,.cls-8{fill:none;stroke-linecap:round;stroke-linejoin:round;}.cls-2,.cls-7,.cls-8{stroke:#c90;}.cls-2,.cls-5{stroke-width:15.73px;}.cls-3{fill:#b3b3b3;}.cls-4,.cls-5,.cls-6{stroke:#b3b3b3;}.cls-4{stroke-width:31.66px;}.cls-6{stroke-width:19.3px;}.cls-7{stroke-width:22.31px;}.cls-8{stroke-width:29.28px;}</style></defs><title>导航</title><path class="cls-1" d="M745,1410.24s25.65,96.25,147.28,80.93,125-205.5,33-237.36-116.72-3-134.28,11.31-67.5,45.47-55.61,102.94c0,0,7.24,6.44,2,21.53-5.56,15.87-11.91-19.62-11.91-19.62s1.6-10.62,4.64-24c3.8-16.69,6.13-36,25.79-57.88,35.37-39.34,65.34-61.15,117.25-56.29s88,32.68,108.74,61.24,23.36,97,1.1,140.17-63.22,71.38-113.56,66.2-68.2-12.16-85.17-26.71S745,1410.24,745,1410.24Z"/><path class="cls-1" d="M768.67,622.85c1.37,5.73,3.11,11.38,4.94,17s3.8,11.18,5.77,16.75c3.94,11.14,7.94,22.27,11.72,33.48s7.42,22.48,10.77,33.84,6.46,22.79,9.34,34.29,5.53,23,8,34.64,4.63,23.25,6.7,34.92c1,5.84,2,11.68,2.91,17.54s1.8,11.72,2.69,17.58c1.7,11.75,3,23.49,4.48,35.21q8.53,70.39,16.25,140.89c5.13,47,9.17,94.15,12.75,141.31l-.69.07c-6.09-46.9-11.68-93.84-17.79-140.69l-9.13-70.32c-2.94-23.46-5.85-46.92-8.5-70.41l-4-35.19c-1.37-11.7-2.89-23.4-4.67-35q-5.29-35-13.17-69.48c-5.27-23-11.5-45.75-18.44-68.32-3.47-11.29-7.15-22.51-10.8-33.76-1.82-5.62-3.63-11.26-5.32-16.93S769.21,628.81,768,623Z"/><path class="cls-1" d="M868.14,1241.77c-.19-15.78.15-31.55.53-47.32s1.1-31.53,1.89-47.29q2.55-47.27,7.33-94.4c3.25-31.41,7.12-62.77,12.16-94,2.43-15.61,5.32-31.15,8.32-46.67s6.27-30.9,9.45-46.35l9.62-46.3c3.26-15.43,6.56-30.87,10.35-46.26,1.87-7.7,4-15.34,6.13-23s4.48-15.16,6.8-22.7l13.94-45.17,3.46-11.3c1.18-3.79,2.26-7.45,3.31-11.26l6.29-22.77,6.3-22.79,6.47-22.75q6.53-22.73,13.38-45.37c4.61-15.08,9.37-30.12,14.63-45l.85.29c-4.81,15-9.11,30.15-13.26,45.34s-8.11,30.44-12,45.7l-11.55,45.83-5.78,22.93c-1,3.8-2,7.73-3.14,11.47l-3.32,11.35-13.38,45.34q-3.33,11.33-6.48,22.67c-2,7.57-4,15.15-5.78,22.79C931.07,790.12,928,805.56,925,821s-6,30.93-8.89,46.41l-8.8,46.42q-1.11,5.79-2.11,11.59l-2,11.61-3.86,23.25c-2.48,15.52-4.89,31.05-7,46.63s-4.31,31.15-6.18,46.77q-5.71,46.84-9.93,93.89c-2.82,31.36-5.32,62.76-7.1,94.22Z"/><path class="cls-1" d="M829.65,1170.79c6.41,1.91,12,4.7,17.47,6.92a72.13,72.13,0,0,0,15.73,4.94,34.13,34.13,0,0,0,15-1,27.46,27.46,0,0,0,7.24-3.31,22.77,22.77,0,0,0,6.37-6.29,15.21,15.21,0,0,1-1.92,10.14,23.16,23.16,0,0,1-7.47,7.87,29.79,29.79,0,0,1-21.19,4.43,40.34,40.34,0,0,1-18.62-8.72,53.09,53.09,0,0,1-7-6.88A50.45,50.45,0,0,1,829.65,1170.79Z"/><path class="cls-1" d="M839.17,1193.79c5.53,1.61,10.24,3.18,15,4.42s9.24,2.33,13.85,3.18,9.24,1.49,14.06,2,9.81.78,15.56,1.27c-4,4.23-9.28,6.72-14.79,8.11a41.54,41.54,0,0,1-32.75-6.11C845.42,1203.39,841.37,1199.16,839.17,1193.79Z"/><path class="cls-2" d="M771.52,1279.26c.89,1.54,50.1-36.95,53.57-30.93,2.29,4-78.23,82.1-75.06,87.59,11,19,154.11-109.17,162.85-94,8.26,14.3-177.53,94.94-166.22,114.51,8.91,15.44,152-122.59,167.08-96.47,2.88,5-163.28,119.77-159,127.13,16.86,29.21,185.69-116.11,189.54-109.43,5,8.73-181.06,126.61-172.11,142.11,4.79,8.29,205.41-136.8,213.29-123.15,4.19,7.25-220.25,115-205.8,140,11.49,19.91,192.7-120,196.49-113.45,16,27.72-193.56,114.75-179.31,139.43,9.87,17.09,163.08-130.53,178.83-103.25,11.48,19.88-193.47,94-181.23,115.2,4.82,8.34,162.9-126.48,176.94-102.16,11.28,19.54-158.82,102.71-153,112.83,3,5.16,156-117.53,167.86-96.92,3.64,6.3-149.67,99.53-144.69,108.16,7,12.16,145.44-99.86,152.32-87.94,2.31,4-83.17,75-81.26,78.26,3.73,6.46,46.85-31.58,48.82-28.18"/><path class="cls-1" d="M850.87,1218.65a49,49,0,0,1,10.17-3.47,68.38,68.38,0,0,1,9.23-1.48,66.63,66.63,0,0,1,9.34-.24,48.21,48.21,0,0,1,10.63,1.59,21.2,21.2,0,0,1-8.47,7.57,28.94,28.94,0,0,1-21.2,1.92A21.33,21.33,0,0,1,850.87,1218.65Z"/><path class="cls-3" d="M270.11,1052.44s51.62,193.67,296.35,162.84,251.47-413.5,66.38-477.61-234.86-6-270.2,22.77S226.81,851.92,250.75,967.57c0,0,14.57,13,3.94,43.31-11.18,31.94-24-39.47-24-39.47S233.94,950,240,923.19c7.64-33.58,12.34-72.49,51.89-116.47,71.17-79.16,131.48-123,235.93-113.27S705,759.2,746.66,816.67s47,195.13,2.21,282-127.22,143.63-228.5,133.21S383.15,1207.46,349,1178.18,270.11,1052.44,270.11,1052.44Z"/><path class="cls-3" d="M238.48,202.47a33.16,33.16,0,0,1-11.53-4.87,25.94,25.94,0,0,1-8.33-9.41,33.43,33.43,0,0,1-3.48-12.11,52.33,52.33,0,0,1,.34-12.57,85.89,85.89,0,0,1,7.39-23.92A110,110,0,0,1,236,118.24a88.68,88.68,0,0,1,18-17.54,57.54,57.54,0,0,1,11.09-6.25,39.84,39.84,0,0,1,12.51-3.11,32.21,32.21,0,0,1,6.54.18c1.09.13,2.18.36,3.19.58s2.06.42,3.08.69a118.39,118.39,0,0,1,12.09,3.57A136.24,136.24,0,0,1,325.34,107a186.26,186.26,0,0,1,39.31,31.12,275.08,275.08,0,0,1,31.4,39c18.63,27.76,33,58.08,44.86,89.21q8.84,23.38,15.78,47.4,3.5,12,6.59,24.09c2.06,8.07,3.89,16.19,5.74,24.26q11.25,48.43,20.85,97.25c6.43,32.53,12.25,65.18,17.78,97.85s11,65.34,16.42,98l-.78.15c-7.4-32.31-14.3-64.73-20.9-97.2l-9.91-48.68q-5-24.32-10.15-48.6c-6.93-32.36-14.14-64.67-21.2-97-3.52-16.19-7.22-32.19-11.58-48.1s-9.28-31.62-14.88-47.11a489.5,489.5,0,0,0-19-45.54,375,375,0,0,0-24.07-43,270,270,0,0,0-30.33-38.69,181.84,181.84,0,0,0-38-30.86,137.33,137.33,0,0,0-22-10.63,114.64,114.64,0,0,0-11.67-3.66c-1-.27-2-.48-3-.72s-1.95-.45-2.91-.58a28.8,28.8,0,0,0-5.85-.26,36.6,36.6,0,0,0-11.54,2.67,54.5,54.5,0,0,0-10.61,5.74,86,86,0,0,0-17.75,16.7,107.76,107.76,0,0,0-13.19,20.68,84,84,0,0,0-7.63,23.27,50.8,50.8,0,0,0-.54,12.2,32.12,32.12,0,0,0,3.14,11.68,24.82,24.82,0,0,0,7.82,9.14,32.26,32.26,0,0,0,11.14,4.92Z"/><path class="cls-3" d="M908.71,133.72a27.33,27.33,0,0,0,13.89-4.06,22.82,22.82,0,0,0,8.77-11.24,39.8,39.8,0,0,0,2.31-14.37,67.28,67.28,0,0,0-1.82-14.6,102.89,102.89,0,0,0-29.23-50.32A69.1,69.1,0,0,0,878,24a52.21,52.21,0,0,0-14.07-2.68,51.37,51.37,0,0,0-14.21,1.31c-9.32,2.19-18,6.83-25.68,12.69a123.64,123.64,0,0,0-20.71,20.58L784.93,79.49c-6.1,7.9-12.26,15.75-18.3,23.68-12.18,15.8-24.15,31.73-35.73,47.91s-22.69,32.66-33.08,49.6-20.18,34.25-29.68,51.74c-4.69,8.78-9.42,17.54-14,26.41s-9.13,17.72-13.64,26.61l-13.47,26.71-3.36,6.67c-1.08,2.22-2.2,4.41-3.24,6.64q-3.17,6.68-6.12,13.47c-7.84,18.12-14.74,36.7-21,55.52q-4.71,14.11-8.93,28.39t-8.13,28.67q-3.87,14.4-7.39,28.9c-2.35,9.66-4.66,19.34-6.84,29.06s-4.27,19.45-6.28,29.2-4,19.52-5.86,29.3-3.68,19.59-5.44,29.4-3.39,19.65-5,29.48c-3.24,19.68-6.28,39.41-9,59.18l-1-.1c1.33-19.95,3.35-39.84,5.65-59.7,1.14-9.93,2.44-19.84,3.78-29.75s2.78-19.81,4.34-29.68,3.18-19.75,4.9-29.61,3.61-19.69,5.55-29.51,4-19.63,6.17-29.4,4.5-19.53,6.94-29.25,5-19.43,7.73-29.08,5.66-19.26,8.75-28.82a574,574,0,0,1,21.43-56.45q3.07-6.92,6.39-13.74c1.09-2.28,2.26-4.53,3.38-6.79l3.44-6.67c4.59-8.88,9.19-17.74,13.89-26.56s9.35-17.67,14.13-26.46,9.58-17.56,14.42-26.32c9.8-17.46,19.92-34.77,30.62-51.73s22.13-33.47,34-49.63,24.06-32,36.45-47.67c6.16-7.87,12.41-15.65,18.61-23.49l9.35-11.7L794,58.06c1.55-1.95,3.11-3.9,4.74-5.87a129.22,129.22,0,0,1,22-21.17A85.45,85.45,0,0,1,834,23a65.17,65.17,0,0,1,14.68-5.08A55.66,55.66,0,0,1,879.39,20,73,73,0,0,1,905.1,36.54a105.84,105.84,0,0,1,29,52.43,69.42,69.42,0,0,1,1.56,15.1,41.6,41.6,0,0,1-2.74,15,24.34,24.34,0,0,1-9.6,11.77,28.51,28.51,0,0,1-14.59,3.95Z"/><path class="cls-3" d="M468.08,593.15c2.58.71,5,1.58,7.42,2.5s4.73,1.87,7,2.82l13.33,5.67c8.64,3.6,16.85,6.52,25,7.85a54,54,0,0,0,23.84-1.66,43.94,43.94,0,0,0,11.5-5.26,34.75,34.75,0,0,0,5.29-4.25,41.27,41.27,0,0,0,4.81-5.76c1.05,5.27-.26,11.09-3,16.12a36.6,36.6,0,0,1-11.87,12.52,46.15,46.15,0,0,1-16,6.64,47.35,47.35,0,0,1-17.64.38,59.56,59.56,0,0,1-16-5.16,69.67,69.67,0,0,1-13.59-8.69A83,83,0,0,1,477,605.94c-.81-1-1.64-2-2.43-3s-1.56-2.05-2.3-3.12A66,66,0,0,1,468.08,593.15Z"/><path class="cls-3" d="M483.22,629.72a64.56,64.56,0,0,1,6.37,1.9c2.09.56,4.07,1.2,6,1.84s3.92,1.09,5.78,1.71,3.81,1,5.64,1.58c7.45,2,14.69,3.7,22,5s14.68,2.38,22.35,3.17c1.91.13,3.85.31,5.83.56,2,.09,4,.29,6,.49s4.09.22,6.25.45a63.86,63.86,0,0,1,6.63.53,46.61,46.61,0,0,1-5.1,4.54c-1.84,1.28-3.76,2.45-5.74,3.59-2,1-4.07,1.92-6.18,2.77s-4.29,1.39-6.49,2a66,66,0,0,1-52-9.71c-1.83-1.35-3.61-2.75-5.34-4.18s-3.24-3.18-4.77-4.8c-1.43-1.77-2.81-3.56-4.07-5.41A46.92,46.92,0,0,1,483.22,629.72Z"/><path class="cls-4" d="M323.1,789.11c1.8,3.11,101.26-74.67,108.28-62.51C436,734.6,273.73,891.91,280.11,903c22.07,38.23,310.33-219.85,327.95-189.34,16.62,28.79-357.51,191.15-334.75,230.57C291.25,975.27,579.26,697.47,609.61,750c5.79,10-328.58,241-320,255.82,33.94,58.78,373.74-233.71,381.5-220.26,10.15,17.58-364.52,254.87-346.51,286.07,9.64,16.69,413.56-275.42,429.43-247.93,8.43,14.6-443.42,231.42-414.34,281.78,23.13,40.07,387.9-241.59,395.53-228.36,32.21,55.79-389.63,230.95-360.94,280.64C394.12,1192.2,702.6,895,734.31,949.92c23.11,40-389.49,189.19-364.83,231.89,9.7,16.79,327.85-254.54,356.11-205.6,22.71,39.33-319.67,206.7-307.9,227.08,6,10.39,314-236.62,337.95-195.12,7.33,12.7-301.4,200.39-291.37,217.75,14.14,24.48,292.75-201,306.6-177,4.65,8.06-167.5,150.88-163.66,157.53,7.54,13.06,94.74-63.85,98.7-57"/><path class="cls-3" d="M501.81,669.21a34.47,34.47,0,0,1,4.33-1.91c1.4-.58,2.76-1,4.09-1.46s2.64-.86,3.93-1.18,2.56-.7,3.81-1a108.59,108.59,0,0,1,14.67-2.35,106,106,0,0,1,14.84-.37q1.92.05,3.92.27c1.32.08,2.69.27,4.08.46s2.8.39,4.29.7a34.3,34.3,0,0,1,4.61,1.11,26.65,26.65,0,0,1-2.85,3.89,42.62,42.62,0,0,1-3.26,3.21c-1.16.93-2.34,1.86-3.56,2.69s-2.5,1.54-3.79,2.23a46,46,0,0,1-33.69,3c-1.39-.45-2.77-.94-4.13-1.51s-2.68-1.29-4-2a42.56,42.56,0,0,1-3.79-2.56A26.79,26.79,0,0,1,501.81,669.21Z"/><path class="cls-3" d="M633.21,654.72S658.86,751,780.48,735.65s125-205.5,33-237.36-116.72-3-134.28,11.31-67.5,45.47-55.61,102.94c0,0,7.24,6.44,2,21.53-5.56,15.87-11.91-19.62-11.91-19.62s1.6-10.62,4.64-24c3.8-16.69,6.13-36,25.79-57.88,35.37-39.34,65.34-61.15,117.25-56.29S849.35,509,870,537.55s23.36,97,1.1,140.17-63.22,71.38-113.56,66.2-68.2-12.16-85.17-26.71S633.21,654.72,633.21,654.72Z"/><path class="cls-3" d="M656.74,165.17c2.68,5.79,6.34,11.07,9.89,16.39s7.23,10.58,10.75,16,6.94,10.81,10.19,16.36,6.28,11.23,9.15,17a298.54,298.54,0,0,1,15,35.63c2.15,6.08,4,12.25,5.82,18.46s3.28,12.5,4.72,18.72q8.72,37.43,16.92,75c5.47,25.08,9.88,50.35,13.95,75.66l-.49.1c-5.89-25-11.42-50-17.56-74.81q-4.64-18.63-9.16-37.33c-3-12.47-5.9-24.95-8.64-37.47l-2.09-9.36-1-4.66L713,286.15q-2.27-9.27-5.15-18.38A293.85,293.85,0,0,0,694,232.19a349.32,349.32,0,0,0-18.18-33.69c-3.31-5.47-6.76-10.87-10.17-16.3s-6.85-10.88-9.36-16.83Z"/><path class="cls-3" d="M756.46,486.25c0-8.64.4-17.27,1-25.89s1.42-17.22,2.41-25.81c2-17.16,4.78-34.26,8.37-51.2,1.81-8.46,3.74-16.91,5.94-25.29s4.64-16.7,7.29-25,5.67-16.4,8.77-24.49l9.46-24.05c3.19-8,6.31-16,9.6-24s6.7-16,10.68-23.77,8.42-15.2,12.8-22.62l13.16-22.23c1.07-1.84,2.23-3.74,3.22-5.53s2-3.75,3-5.65l6-11.43q6-11.45,12.23-22.79c4.15-7.56,8.38-15.08,12.73-22.53s8.83-14.83,13.68-22l.54.35c-4.56,7.29-8.74,14.82-12.81,22.41s-8,15.25-11.84,22.94-7.62,15.44-11.42,23.16l-5.69,11.61c-1,1.94-1.91,3.87-2.92,5.82l-.78,1.47-.8,1.41L849.55,194l-12.82,22.45c-4.27,7.48-8.56,14.91-12.3,22.55s-7,15.54-10.09,23.54-6.12,16.07-9.11,24.14l-9,24.24q-4.48,12-8.39,24.26t-7.38,24.6c-2.26,8.26-4.45,16.55-6.41,24.89q-5.95,25-10.16,50.47-2.15,12.71-3.86,25.49c-1.14,8.52-2.18,17.07-3,25.64Z"/><path class="cls-3" d="M717.84,415.27c6.41,1.91,12,4.7,17.47,6.92A72.14,72.14,0,0,0,751,427.13a34.14,34.14,0,0,0,15-1,27.47,27.47,0,0,0,7.24-3.31,22.77,22.77,0,0,0,6.37-6.29,15.21,15.21,0,0,1-1.92,10.14,23.16,23.16,0,0,1-7.47,7.87,29.79,29.79,0,0,1-21.19,4.43,40.33,40.33,0,0,1-18.62-8.72,53.08,53.08,0,0,1-7-6.88A50.46,50.46,0,0,1,717.84,415.27Z"/><path class="cls-3" d="M727.36,438.27c5.53,1.61,10.24,3.18,15,4.42s9.24,2.33,13.85,3.18,9.24,1.49,14.06,2,9.81.78,15.56,1.27c-4,4.23-9.28,6.72-14.79,8.11a41.55,41.55,0,0,1-32.75-6.11C733.61,447.87,729.56,443.64,727.36,438.27Z"/><path class="cls-5" d="M659.7,523.74c.89,1.54,50.1-36.95,53.57-30.93,2.29,4-78.23,82.1-75.06,87.59,11,19,154.11-109.17,162.85-94,8.26,14.3-177.53,94.94-166.22,114.51,8.91,15.44,152-122.59,167.08-96.47,2.88,5-163.28,119.77-159,127.13,16.86,29.21,185.69-116.11,189.54-109.43,5,8.73-181.06,126.61-172.11,142.11,4.79,8.29,205.41-136.8,213.29-123.15,4.19,7.25-220.25,115-205.8,140C679.32,701,860.52,561,864.32,567.62,880.32,595.33,670.76,682.36,685,707c9.87,17.09,163.08-130.53,178.83-103.25,11.48,19.88-193.47,94-181.23,115.2,4.82,8.34,162.9-126.48,176.94-102.16,11.28,19.54-158.82,102.71-153,112.83,3,5.16,156-117.53,167.86-96.92,3.64,6.3-149.67,99.53-144.69,108.16,7,12.16,145.44-99.86,152.32-87.94,2.31,4-83.17,75-81.26,78.26,3.73,6.46,46.85-31.58,48.81-28.18"/><path class="cls-3" d="M739.06,463.13a49,49,0,0,1,10.17-3.48,68.3,68.3,0,0,1,9.23-1.48,66.63,66.63,0,0,1,9.34-.24,48.21,48.21,0,0,1,10.63,1.59A21.2,21.2,0,0,1,770,467.1a28.94,28.94,0,0,1-21.2,1.92A21.33,21.33,0,0,1,739.06,463.13Z"/><path class="cls-3" d="M39.9,736.29s31.47,118.08,180.68,99.28,153.32-252.1,40.47-291.2-143.19-3.67-164.74,13.88S13.5,614,28.1,684.55c0,0,8.88,7.9,2.4,26.41-6.82,19.47-14.61-24.06-14.61-24.06s2-13,5.69-29.4c4.66-20.47,7.52-44.19,31.63-71,43.39-48.27,80.16-75,143.84-69.06s108,40.09,133.4,75.13,28.66,119,1.35,172-77.56,87.57-139.31,81.21S108.82,830.81,88,813,39.9,736.29,39.9,736.29Z"/><path class="cls-3" d="M68.78,135.71c3.29,7.1,7.77,13.58,12.13,20.11s8.87,13,13.19,19.57,8.52,13.26,12.5,20.08,7.71,13.78,11.23,20.85A366.29,366.29,0,0,1,136.16,260c1.33,3.73,2.53,7.5,3.74,11.26.6,1.88,1.15,3.79,1.72,5.68s1.15,3.79,1.67,5.7c2.24,7.6,4,15.34,5.79,23q10.7,45.92,20.75,92c6.71,30.77,12.12,61.77,17.11,92.83l-.6.12c-7.23-30.62-14-61.31-21.55-91.78l-5.65-22.88L153.56,353c-3.66-15.29-7.23-30.61-10.6-46l-2.57-11.49-1.26-5.71-1.37-5.69q-2.78-11.37-6.32-22.54a360.58,360.58,0,0,0-17-43.66q-4.95-10.64-10.58-20.95c-3.72-6.89-7.65-13.67-11.72-20.38s-8.29-13.33-12.47-20S71.29,143.25,68.21,136Z"/><path class="cls-3" d="M191.11,529.61c0-5.3.11-10.6.34-15.89s.51-10.58.88-15.87c.71-10.57,1.74-21.13,3-31.66,2.5-21.06,5.86-42,10.26-62.82,2.22-10.38,4.58-20.75,7.29-31s5.7-20.49,8.94-30.62,6.9-20.14,10.75-30l11.62-29.5c3.91-9.83,7.74-19.68,11.78-29.49s8.22-19.63,13.1-29.16,10.33-18.65,15.71-27.75l16.15-27.27,2-3.41,1-1.71.94-1.67c1.25-2.26,2.49-4.6,3.72-6.93l7.37-14q7.36-14,15-28c5.09-9.28,10.26-18.51,15.59-27.65S357.38,67,363.35,58.22l.66.44c-5.58,9-10.67,18.22-15.68,27.51s-9.81,18.7-14.55,28.13-9.36,18.93-14,28.41l-7,14.24c-1.17,2.38-2.34,4.74-3.58,7.14l-1,1.81-1,1.72-2,3.45-15.73,27.54c-5.23,9.18-10.5,18.3-15.09,27.67s-8.57,19.06-12.38,28.88-7.51,19.71-11.17,29.62l-11,29.74c-3.62,9.86-7.1,19.75-10.3,29.76s-6.21,20.06-9.05,30.18-5.45,20.3-7.87,30.54q-7.3,30.7-12.46,61.92-2.64,15.59-4.73,31.28c-1.39,10.46-2.67,20.94-3.63,31.46Z"/><path class="cls-3" d="M143.73,442.53a101.51,101.51,0,0,1,11.15,4.11c3.54,1.48,6.94,3,10.29,4.38,6.67,2.78,13,5,19.3,6.06a41.73,41.73,0,0,0,18.4-1.29,33.31,33.31,0,0,0,8.88-4.05,28,28,0,0,0,7.81-7.72,18.65,18.65,0,0,1-2.36,12.44,28.57,28.57,0,0,1-9.17,9.66,36.61,36.61,0,0,1-26,5.42,46,46,0,0,1-12.36-4,53.78,53.78,0,0,1-10.49-6.71,66,66,0,0,1-8.58-8.45A61.83,61.83,0,0,1,143.73,442.53Z"/><path class="cls-3" d="M155.41,470.76c6.78,2,12.56,3.9,18.36,5.42s11.34,2.86,17,3.9,11.33,1.83,17.25,2.45,12,1,19.08,1.56c-4.88,5.19-11.38,8.25-18.15,9.95a51,51,0,0,1-40.18-7.49C163.08,482.52,158.11,477.33,155.41,470.76Z"/><path class="cls-6" d="M72.41,575.61c1.09,1.89,61.47-45.33,65.73-37.95,2.81,4.87-96,100.72-92.09,107.46,13.45,23.29,189.06-133.94,199.8-115.35C256,547.3,28,646.23,41.91,670.25c10.94,18.94,186.49-150.39,205-118.35,3.53,6.11-200.32,146.94-195.11,156C72.47,743.7,279.6,565.41,284.33,573.61,290.51,584.32,62.19,728.94,73.17,748c5.87,10.17,252-167.83,261.68-151.08,5.14,8.9-270.22,141-252.5,171.73C96.46,793,318.78,621.36,323.44,629.42c19.63,34-237.48,140.78-220,171.07,12.1,21,200.09-160.15,219.41-126.68,14.08,24.4-237.38,115.31-222.35,141.34C106.41,825.39,300.37,660,317.59,689.81c13.84,24-194.87,126-187.7,138.44,3.65,6.33,191.36-144.21,206-118.92C340.33,717.07,152.2,831.46,158.31,842,166.93,857,336.78,719.5,345.22,734.13c2.84,4.91-102,92-99.71,96,4.58,7.93,57.48-38.75,59.89-34.58"/><path class="cls-3" d="M169.77,501.24A60.07,60.07,0,0,1,182.24,497a83.86,83.86,0,0,1,11.32-1.81,81.66,81.66,0,0,1,11.46-.29,59.11,59.11,0,0,1,13,2,26,26,0,0,1-10.39,9.29,35.5,35.5,0,0,1-26,2.35A26.15,26.15,0,0,1,169.77,501.24Z"/><path class="cls-3" d="M1335.71,1211.82s25.65,96.25,147.28,80.93,125-205.5,33-237.36-116.72-3-134.28,11.31-67.5,45.47-55.61,102.94c0,0,7.24,6.44,2,21.53-5.56,15.87-11.91-19.62-11.91-19.62s1.6-10.62,4.64-24c3.8-16.69,6.13-36,25.79-57.88,35.37-39.34,65.34-61.15,117.25-56.29s88,32.68,108.74,61.24,23.36,97,1.1,140.17-63.22,71.38-113.56,66.2-68.2-12.16-85.17-26.71S1335.71,1211.82,1335.71,1211.82Z"/><path class="cls-3" d="M1359.36,424.43c1.37,5.73,3.11,11.38,4.94,17s3.8,11.18,5.77,16.75c3.94,11.14,7.94,22.27,11.72,33.48s7.42,22.48,10.77,33.84,6.46,22.79,9.34,34.29,5.53,23,8,34.64,4.63,23.25,6.7,34.92c1,5.84,2,11.68,2.91,17.54s1.8,11.72,2.69,17.58c1.7,11.75,3,23.49,4.48,35.21q8.53,70.39,16.25,140.89c5.13,47,9.17,94.15,12.75,141.31l-.69.07c-6.09-46.9-11.68-93.84-17.79-140.69l-9.13-70.32c-2.94-23.46-5.85-46.92-8.5-70.41l-4-35.19c-1.37-11.7-2.89-23.4-4.67-35q-5.29-35-13.17-69.48c-5.27-23-11.5-45.75-18.44-68.32-3.47-11.29-7.15-22.51-10.8-33.76-1.82-5.62-3.63-11.26-5.32-16.93s-3.27-11.38-4.5-17.18Z"/><path class="cls-3" d="M1458.84,1043.35c-.19-15.78.15-31.55.53-47.32s1.1-31.53,1.89-47.29q2.55-47.27,7.33-94.4c3.25-31.41,7.12-62.77,12.16-94,2.43-15.61,5.32-31.15,8.32-46.67s6.27-30.9,9.45-46.35l9.62-46.3c3.26-15.43,6.56-30.87,10.35-46.26,1.87-7.7,4-15.34,6.13-23s4.48-15.16,6.8-22.7L1545.36,484l3.46-11.3c1.18-3.79,2.25-7.45,3.31-11.26l6.29-22.77,6.3-22.79,6.47-22.75q6.53-22.73,13.38-45.37c4.61-15.08,9.37-30.12,14.63-45l.85.29c-4.81,15-9.11,30.15-13.26,45.34s-8.11,30.44-12,45.7l-11.55,45.83-5.78,22.93c-1,3.8-2,7.73-3.14,11.47L1551,485.65,1537.6,531q-3.33,11.33-6.48,22.67c-2,7.57-4,15.15-5.78,22.79-3.58,15.26-6.62,30.69-9.66,46.14s-6,30.93-8.89,46.41L1498,715.4q-1.11,5.79-2.11,11.59l-2,11.61L1490,761.86c-2.48,15.52-4.89,31.05-7,46.63s-4.31,31.15-6.18,46.77q-5.71,46.84-9.93,93.89c-2.82,31.36-5.32,62.76-7.1,94.22Z"/><path class="cls-3" d="M1420.34,972.36c6.41,1.91,12,4.7,17.47,6.92a72.16,72.16,0,0,0,15.73,4.94,34.13,34.13,0,0,0,15-1,27.46,27.46,0,0,0,7.24-3.31,22.77,22.77,0,0,0,6.37-6.29,15.21,15.21,0,0,1-1.92,10.14,23.16,23.16,0,0,1-7.47,7.87,29.79,29.79,0,0,1-21.19,4.43,40.33,40.33,0,0,1-18.62-8.72,53.06,53.06,0,0,1-7-6.88A50.44,50.44,0,0,1,1420.34,972.36Z"/><path class="cls-3" d="M1429.87,995.37c5.53,1.61,10.24,3.18,15,4.42s9.24,2.33,13.85,3.18,9.24,1.49,14.06,2,9.81.78,15.56,1.27c-4,4.23-9.28,6.72-14.79,8.11a41.54,41.54,0,0,1-32.75-6.11C1436.12,1005,1432.07,1000.73,1429.87,995.37Z"/><path class="cls-5" d="M1362.21,1080.84c.89,1.54,50.1-36.95,53.57-30.93,2.29,4-78.23,82.1-75.06,87.59,11,19,154.11-109.17,162.85-94,8.26,14.3-177.53,94.94-166.22,114.51,8.91,15.44,152-122.59,167.08-96.47,2.88,5-163.28,119.77-159,127.13,16.86,29.21,185.69-116.11,189.54-109.43,5,8.73-181.06,126.61-172.11,142.11,4.79,8.29,205.41-136.8,213.29-123.15,4.19,7.25-220.25,115-205.8,140,11.49,19.91,192.7-120,196.49-113.45,16,27.72-193.56,114.75-179.31,139.43,9.87,17.09,163.08-130.53,178.83-103.25,11.48,19.88-193.47,94-181.23,115.2,4.82,8.34,162.9-126.48,176.94-102.16,11.28,19.54-158.82,102.71-153,112.83,3,5.16,156-117.53,167.86-96.92,3.64,6.3-149.67,99.53-144.69,108.16,7,12.16,145.44-99.86,152.32-87.94,2.31,4-83.17,75-81.26,78.26,3.73,6.46,46.85-31.58,48.82-28.18"/><path class="cls-3" d="M1441.57,1020.22a49,49,0,0,1,10.17-3.47,68.3,68.3,0,0,1,9.23-1.48,66.56,66.56,0,0,1,9.34-.24,48.18,48.18,0,0,1,10.63,1.59,21.2,21.2,0,0,1-8.47,7.57,28.94,28.94,0,0,1-21.2,1.92A21.32,21.32,0,0,1,1441.57,1020.22Z"/><path class="cls-1" d="M1543.42,968.58s36.37,136.48,208.84,114.75S1929.47,791.94,1799,746.76s-165.51-4.25-190.41,16-95.72,64.47-78.85,146c0,0,10.27,9.13,2.78,30.52-7.88,22.51-16.89-27.81-16.89-27.81s2.27-15.06,6.58-34c5.38-23.67,8.69-51.08,36.56-82.08,50.16-55.79,92.65-86.7,166.26-79.82s124.85,46.34,154.19,86.83,33.12,137.51,1.56,198.76-89.65,101.22-161,93.87-96.71-17.24-120.77-37.87S1543.42,968.58,1543.42,968.58Z"/><path class="cls-1" d="M1605.05,322.23c2.72,7.08,6.51,13.71,10.19,20.36s7.49,13.26,11.11,20,7.12,13.51,10.41,20.4,6.35,13.9,9.23,21a410.91,410.91,0,0,1,14.83,43.42c2.07,7.37,4,14.78,5.7,22.25.89,3.72,1.67,7.47,2.44,11.22l2.17,11.22q8.64,44.86,16.67,89.83c5.35,30,9.64,60.21,13.56,90.42l-.55.09c-5.92-29.9-11.44-59.85-17.55-89.65L1674.16,538c-3-14.94-5.88-29.89-8.58-44.89l-2.06-11.23c-.72-3.72-1.32-7.46-2.09-11.16-1.42-7.44-3.13-14.82-5-22.17a403,403,0,0,0-13.61-43.36q-4-10.64-8.65-21t-9.69-20.62c-3.39-6.81-6.93-13.54-10.44-20.31s-7-13.55-9.56-20.79Z"/><path class="cls-1" d="M1704.75,733.84c-.1-9.78.21-19.56.57-29.33s1-19.54,1.63-29.3q2.14-29.27,6-58.4c2.63-19.4,5.79-38.76,9.84-57.94,2-9.6,4.25-19.14,6.67-28.65s5-18.9,7.46-28.35l7.57-28.32c2.58-9.44,5.2-18.88,8.22-28.25s6.61-18.53,10.2-27.61l10.82-27.22,2.69-6.81,1.3-3.37,1.24-3.43,4.89-13.8q4.86-13.82,9.94-27.57c3.38-9.17,6.83-18.32,10.4-27.42s7.26-18.15,11.31-27.05l.57.25c-3.75,9-7.13,18.17-10.39,27.36s-6.39,18.44-9.47,27.7l-9.11,27.83-4.55,13.93-1.17,3.49c-.41,1.17-.82,2.37-1.26,3.49l-2.6,6.85-10.45,27.37c-3.46,9.12-6.88,18.22-9.73,27.47s-5.3,18.68-7.73,28.12-4.75,18.93-7.07,28.41l-7,28.43c-1.17,4.72-2.24,9.46-3.33,14.2s-2.09,9.5-3.08,14.26q-3,14.28-5.62,28.64c-1.76,9.57-3.42,19.17-4.91,28.79q-4.54,28.86-7.83,57.94c-2.2,19.38-4.13,38.8-5.46,58.28Z"/><path class="cls-1" d="M1666.12,662.85c6.41,1.91,12,4.7,17.47,6.92a72.14,72.14,0,0,0,15.74,4.94,34.14,34.14,0,0,0,15-1,27.49,27.49,0,0,0,7.24-3.31,22.78,22.78,0,0,0,6.37-6.29A15.21,15.21,0,0,1,1726,674.2a23.16,23.16,0,0,1-7.47,7.87,29.79,29.79,0,0,1-21.19,4.43,40.33,40.33,0,0,1-18.62-8.72,53.09,53.09,0,0,1-7-6.88A50.46,50.46,0,0,1,1666.12,662.85Z"/><path class="cls-1" d="M1675.64,685.86c5.53,1.61,10.24,3.18,15,4.42s9.24,2.33,13.85,3.18,9.24,1.49,14.06,2,9.81.78,15.56,1.27c-4,4.23-9.28,6.72-14.79,8.11a41.54,41.54,0,0,1-32.75-6.11C1681.89,695.46,1677.84,691.22,1675.64,685.86Z"/><path class="cls-7" d="M1580.9,782.9c1.26,2.19,71.14-52.46,76.07-43.92,3.25,5.63-111,116.42-106.46,124.21,15.55,26.93,218.57-154.84,231-133.35,11.71,20.28-251.85,134.67-235.81,162.44,12.64,21.89,215.57-173.85,237-136.81,4.08,7.06-231.47,169.8-225.45,180.23C1581.11,977.12,1820.51,771,1826,780.52c7.15,12.39-256.85,179.59-244.16,201.57,6.79,11.76,291.35-194,302.53-174.67,5.94,10.29-312.36,163-291.87,198.51,16.3,28.23,273.28-170.2,278.66-160.88,22.7,39.31-274.57,162.75-254.35,197.77,14,24.24,231.35-185.17,253.69-146.47,16.28,28.2-274.39,133.29-257,163.37,6.83,11.83,231-179.35,250.91-144.86,16,27.71-225.25,145.65-217,160,4.23,7.32,221.27-166.75,238.16-137.5,5.17,8.95-212.42,141.23-205.36,153.47,10,17.26,206.33-141.68,216.1-124.76,3.28,5.68-118,106.33-115.26,111,5.3,9.18,66.53-44.85,69.32-40"/><path class="cls-1" d="M1687.34,710.71a49,49,0,0,1,10.17-3.47,68.3,68.3,0,0,1,9.23-1.48,66.63,66.63,0,0,1,9.34-.24,48.2,48.2,0,0,1,10.63,1.59,21.2,21.2,0,0,1-8.47,7.57,28.94,28.94,0,0,1-21.2,1.92A21.32,21.32,0,0,1,1687.34,710.71Z"/><path class="cls-1" d="M986,838.24s47.73,179.11,274.06,150.59,232.55-382.4,61.39-441.69-217.19-5.57-249.88,21.05S946,652.81,968.12,759.76c0,0,13.48,12,3.64,40.06-10.34,29.54-22.16-36.5-22.16-36.5s3-19.76,8.63-44.59c7.07-31.06,11.41-67,48-107.71C1072,537.8,1127.8,497.22,1224.4,506.26s163.84,60.81,202.34,114,43.46,180.45,2,260.83-117.65,132.83-211.31,123.19-126.91-22.62-158.48-49.7S986,838.24,986,838.24Z"/><path class="cls-1" d="M896.32,89.92c22-2.52,44.65-2.35,66.6,2.62a147,147,0,0,1,31.78,11.23,158.26,158.26,0,0,1,14.75,8.31A163.12,163.12,0,0,1,1023.2,122a197.88,197.88,0,0,1,24.38,23.47c1.81,2.16,3.7,4.27,5.45,6.48s3.54,4.42,5.15,6.65c3.31,4.45,6.62,8.91,9.89,13.4,13.14,17.9,26,36,38.4,54.51,6.17,9.26,12.26,18.57,18.12,28s11.57,19,17.08,28.73a598,598,0,0,1,29.68,59.91c4.33,10.27,8.43,20.64,12.11,31.16s7,21.13,10.13,31.82,5.74,21.49,8.22,32.32,4.56,21.74,6.48,32.67l-.79.16c-1.3-5.39-2.53-10.79-3.93-16.15s-2.76-10.73-4.2-16.07q-4.4-16-9.49-31.8a585,585,0,0,0-24-61.7c-4.6-10-9.39-20-14.54-29.71s-10.53-19.38-16.08-28.92-11.39-18.9-17.34-28.2-12.08-18.49-18.29-27.64-12.55-18.2-18.93-27.24-12.83-18-19.35-27l-9.77-13.44-4.85-6.64c-1.59-2.21-3.31-4.33-5-6.5-3.43-4.22-6.95-8.39-10.74-12.29-1.85-2-3.82-3.87-5.76-5.78-1-1-2-1.84-3-2.76s-2-1.84-3.05-2.7a157.11,157.11,0,0,0-12.9-10,152.87,152.87,0,0,0-13.94-8.49,145.66,145.66,0,0,0-30.41-12,150.8,150.8,0,0,0-16.07-3.52c-5.42-.89-10.89-1.58-16.39-2a250.94,250.94,0,0,0-33.13-.1Z"/><path class="cls-1" d="M1535.54,61.91Q1522,74,1507.7,85.24c-9.5,7.51-19.17,14.81-28.82,22.1-19.3,14.57-38.43,29.27-56.59,45.09a708.06,708.06,0,0,0-51.89,50.17q-12.35,13.17-24.12,26.87c-4,4.54-7.79,9.19-11.71,13.76s-7.6,9.12-11.19,13.88a423.44,423.44,0,0,0-37.83,60.68c-5.51,10.63-10.73,21.43-15.59,32.4q-3.65,8.23-7.08,16.56t-6.72,16.73q-13,33.66-23.25,68.39c-6.84,23.12-13.09,46.47-18.22,70.09l-1-.16c1.55-12,3.61-24,5.94-35.87q1.76-8.92,3.7-17.81t4.15-17.72c2.86-11.79,6.06-23.51,9.5-35.16s7.18-23.22,11.21-34.7,8.35-22.87,13.07-34.1,9.73-22.36,15.19-33.29,11.33-21.67,17.78-32.09a331,331,0,0,1,20.86-30.32c3.72-4.88,7.73-9.6,11.77-14.21s8.15-9,12.31-13.43c8.29-8.88,16.69-17.67,25.29-26.25a724.07,724.07,0,0,1,53.85-49.13q14.09-11.56,28.74-22.37c9.76-7.21,19.69-14.15,29.59-21.09s19.81-13.86,29.55-21,19.35-14.46,28.71-22.11Z"/><path class="cls-1" d="M1152.3,409.06c2.58.71,5,1.58,7.42,2.5s4.73,1.87,7,2.82l13.33,5.67c8.64,3.6,16.85,6.52,25,7.85a54,54,0,0,0,23.84-1.66,43.92,43.92,0,0,0,11.5-5.26,34.77,34.77,0,0,0,5.29-4.25,41.29,41.29,0,0,0,4.81-5.76c1.05,5.27-.26,11.09-3,16.12a36.6,36.6,0,0,1-11.87,12.52,46.15,46.15,0,0,1-16,6.64,47.35,47.35,0,0,1-17.64.38,59.57,59.57,0,0,1-16-5.16,69.66,69.66,0,0,1-13.59-8.69,83,83,0,0,1-11.11-10.94c-.81-1-1.64-2-2.43-3s-1.56-2.05-2.3-3.12A66,66,0,0,1,1152.3,409.06Z"/><path class="cls-1" d="M1167.43,445.63a64.49,64.49,0,0,1,6.37,1.9c2.09.56,4.07,1.2,6,1.84s3.92,1.09,5.78,1.71,3.81,1,5.64,1.58c7.45,2,14.69,3.7,22,5s14.68,2.38,22.35,3.17c1.91.13,3.85.31,5.83.56,2,.09,4,.29,6,.49s4.09.22,6.25.45a63.86,63.86,0,0,1,6.63.53,46.56,46.56,0,0,1-5.1,4.54c-1.84,1.28-3.76,2.45-5.74,3.59-2,1-4.07,1.92-6.18,2.77s-4.29,1.39-6.49,2a66,66,0,0,1-52-9.71c-1.83-1.35-3.61-2.75-5.34-4.18s-3.24-3.18-4.77-4.8c-1.43-1.77-2.81-3.56-4.07-5.41A46.93,46.93,0,0,1,1167.43,445.63Z"/><path class="cls-8" d="M1035.21,594.58c1.66,2.87,93.32-68.82,99.79-57.62,4.27,7.39-145.61,152.78-139.71,163,20.41,35.35,286.93-203.27,303.21-175.06C1313.88,551.53,968,701.65,989,738.1c16.59,28.73,282.89-228.14,311-179.53,5.35,9.27-303.83,222.87-295.92,236.56,31.38,54.36,345.6-216.11,352.78-203.68,9.38,16.25-337,235.67-320.39,264.52,8.91,15.43,382.36-254.64,397-229.22,7.79,13.5-409.93,214-383,260.51,21.39,37,358.65-223.37,365.71-211.14,29.79,51.59-360.33,213.58-333.8,259.54,18.37,31.81,303.67-243,333-192.25,21.37,37-360.21,175-337.41,214.46,9,15.53,303.21-235.42,329.35-190.15,21,36.38-295.66,191.17-284.78,210,5.55,9.61,290.41-218.85,312.57-180.46,6.78,11.74-278.78,185.35-269.51,201.41,13.08,22.65,270.79-185.94,283.61-163.74,4.3,7.45-154.75,139.53-151.2,145.68,6.95,12,87.28-58.83,90.93-52.5"/><path class="cls-1" d="M1186,485.12a34.54,34.54,0,0,1,4.33-1.91c1.4-.58,2.76-1,4.09-1.46s2.64-.86,3.93-1.18,2.56-.7,3.81-1a108.51,108.51,0,0,1,14.67-2.35,105.88,105.88,0,0,1,14.84-.37q1.92.05,3.92.27c1.32.08,2.69.27,4.08.46s2.8.39,4.29.7a34.24,34.24,0,0,1,4.61,1.11,26.64,26.64,0,0,1-2.85,3.89,42.49,42.49,0,0,1-3.26,3.21c-1.16.93-2.34,1.86-3.56,2.69s-2.5,1.54-3.79,2.23a46,46,0,0,1-33.69,3c-1.39-.45-2.77-.94-4.13-1.51s-2.68-1.29-4-2a42.49,42.49,0,0,1-3.79-2.56A26.79,26.79,0,0,1,1186,485.12Z"/></svg>